<?xml version="1.0" encoding="UTF-8" standalone="no"?>
<!-- Created with Inkscape (http://www.inkscape.org/) -->

<svg
   xmlns:dc="http://purl.org/dc/elements/1.1/"
   xmlns:cc="http://creativecommons.org/ns#"
   xmlns:rdf="http://www.w3.org/1999/02/22-rdf-syntax-ns#"
   xmlns:svg="http://www.w3.org/2000/svg"
   xmlns="http://www.w3.org/2000/svg"
   xmlns:sodipodi="http://sodipodi.sourceforge.net/DTD/sodipodi-0.dtd"
   xmlns:inkscape="http://www.inkscape.org/namespaces/inkscape"
   width="52.937668mm"
   height="52.937668mm"
   viewBox="0 0 52.937668 52.937668"
   version="1.1"
   id="svg8"
   inkscape:version="0.92.5 (2060ec1f9f, 2020-04-08)">
  <defs
     id="defs2" />
  <sodipodi:namedview
     id="base"
     pagecolor="#ffffff"
     bordercolor="#666666"
     borderopacity="1.0"
     inkscape:pageopacity="0.0"
     inkscape:pageshadow="2"
     inkscape:zoom="1.4142136"
     inkscape:cx="42.907992"
     inkscape:cy="140.93464"
     inkscape:document-units="mm"
     inkscape:current-layer="layer1"
     showgrid="false"
     fit-margin-top="0"
     fit-margin-left="0"
     fit-margin-right="0"
     fit-margin-bottom="0"
     inkscape:window-width="1366"
     inkscape:window-height="715"
     inkscape:window-x="-8"
     inkscape:window-y="-8"
     inkscape:window-maximized="1" />
  <metadata
     id="metadata5">
    <rdf:RDF>
      <cc:Work
         rdf:about="">
        <dc:format>image/svg+xml</dc:format>
        <dc:type
           rdf:resource="http://purl.org/dc/dcmitype/StillImage" />
        <dc:title></dc:title>
      </cc:Work>
    </rdf:RDF>
  </metadata>
  <g
     inkscape:label="Layer 1"
     inkscape:groupmode="layer"
     id="layer1"
     style="opacity:1"
     transform="translate(-58.953787,-120.85259)">
    <path
       inkscape:connector-curvature="0"
       d="m 109.55211,150.79432 c -0.25972,0.24088 -0.57659,0.35827 -0.89137,0.35827 -0.39445,0 -0.78646,-0.18447 -1.06039,-0.54275 l -3.63063,-4.74638 c -1.58295,1.58404 -3.58112,3.16044 -6.057874,4.45443 l 2.071235,5.52278 c 0.291929,0.77828 -0.04467,1.66979 -0.751823,1.99109 -0.173152,0.0785 -0.35219,0.11582 -0.528111,0.11582 -0.544042,0 -1.060379,-0.35522 -1.280973,-0.94332 L 95.3499,151.47881 c -2.532509,0.97611 -5.479197,1.63778 -8.886466,1.78108 v 5.9024 c 0,0.84194 -0.620228,1.52457 -1.385209,1.52457 -0.764983,0 -1.385211,-0.68263 -1.385211,-1.52457 v -5.9024 c -3.105986,-0.1308 -5.82446,-0.69559 -8.200094,-1.53371 l -1.979465,5.27808 c -0.220594,0.5881 -0.736586,0.94332 -1.280973,0.94332 -0.176267,0 -0.354959,-0.0373 -0.528111,-0.11582 -0.707149,-0.3213 -1.043755,-1.21281 -0.751823,-1.99109 l 1.94726,-5.19232 c -2.548787,-1.23567 -4.615174,-2.77703 -6.266343,-4.35039 l -3.298185,4.31188 c -0.273925,0.3579 -0.665939,0.54275 -1.060378,0.54275 -0.315135,0 -0.631655,-0.11783 -0.891382,-0.35827 -0.585251,-0.54237 -0.660399,-1.50399 -0.167611,-2.14813 l 3.422854,-4.47463 c -2.479872,-2.96758 -3.53748,-5.5746 -3.636176,-5.8273 -0.301976,-0.77334 0.02285,-1.67018 0.725851,-2.00253 0.702647,-0.33313 1.517497,0.0252 1.819473,0.79887 0.09385,0.23632 1.17258,2.85515 3.758073,5.6901 0.03567,0.0271 0.07341,0.0491 0.107353,0.0804 0.09108,0.0846 0.165533,0.1818 0.231676,0.28357 1.780688,1.86836 4.221426,3.78705 7.469744,5.15116 0.04364,0.0145 0.08761,0.0236 0.130901,0.0431 0.01732,0.009 0.03186,0.0202 0.04883,0.029 2.689384,1.10302 5.919002,1.8272 9.78339,1.8272 16.225662,0 21.478722,-12.97415 21.529622,-13.10527 0.30198,-0.77334 1.11718,-1.13236 1.81947,-0.79886 0.70301,0.33234 1.02784,1.22918 0.72586,2.00253 -0.0932,0.23859 -1.04272,2.57652 -3.23447,5.33372 l 3.80033,4.96821 c 0.49383,0.6449 0.41868,1.60652 -0.16657,2.14889 z"
       id="path5145"
       style="stroke-width:0.36330572" />
  </g>
</svg>
