<?xml version="1.0" encoding="UTF-8" standalone="no"?>
<!-- Created with Inkscape (http://www.inkscape.org/) -->

<svg
   xmlns:dc="http://purl.org/dc/elements/1.1/"
   xmlns:cc="http://creativecommons.org/ns#"
   xmlns:rdf="http://www.w3.org/1999/02/22-rdf-syntax-ns#"
   xmlns:svg="http://www.w3.org/2000/svg"
   xmlns="http://www.w3.org/2000/svg"
   xmlns:sodipodi="http://sodipodi.sourceforge.net/DTD/sodipodi-0.dtd"
   xmlns:inkscape="http://www.inkscape.org/namespaces/inkscape"
   width="52.937668mm"
   height="52.937668mm"
   viewBox="0 0 52.937668 52.937668"
   version="1.1"
   id="svg8"
   inkscape:version="0.92.5 (2060ec1f9f, 2020-04-08)"
   sodipodi:docname="eye-up.svg">
  <defs
     id="defs2" />
  <sodipodi:namedview
     id="base"
     pagecolor="#ffffff"
     bordercolor="#666666"
     borderopacity="1.0"
     inkscape:pageopacity="0.0"
     inkscape:pageshadow="2"
     inkscape:zoom="1.4142136"
     inkscape:cx="42.907992"
     inkscape:cy="140.93464"
     inkscape:document-units="mm"
     inkscape:current-layer="layer1"
     showgrid="false"
     fit-margin-top="0"
     fit-margin-left="0"
     fit-margin-right="0"
     fit-margin-bottom="0"
     inkscape:window-width="1366"
     inkscape:window-height="715"
     inkscape:window-x="-8"
     inkscape:window-y="-8"
     inkscape:window-maximized="1" />
  <metadata
     id="metadata5">
    <rdf:RDF>
      <cc:Work
         rdf:about="">
        <dc:format>image/svg+xml</dc:format>
        <dc:type
           rdf:resource="http://purl.org/dc/dcmitype/StillImage" />
        <dc:title></dc:title>
      </cc:Work>
    </rdf:RDF>
  </metadata>
  <g
     inkscape:label="Layer 1"
     inkscape:groupmode="layer"
     id="layer1"
     style="opacity:1"
     transform="translate(-58.953787,-120.85259)">
    <g
       transform="matrix(0.07441523,0,0,0.07441523,62.194872,124.21374)"
       id="g5935">
      <g
         id="g5933">
        <path
           d="m 609.608,315.426 c 3.19,-5.874 3.19,-12.979 0,-18.853 -58.464,-107.643 -172.5,-180.72 -303.607,-180.72 -131.107,0 -245.144,73.078 -303.608,180.72 -3.19,5.874 -3.19,12.979 0,18.853 58.465,107.643 172.499,180.721 303.607,180.721 131.108,0 245.143,-73.078 303.608,-180.721 z M 306,451.855 c -80.554,0 -145.855,-65.302 -145.855,-145.855 0,-80.553 65.301,-145.856 145.855,-145.856 80.554,0 145.856,65.302 145.856,145.856 0,80.554 -65.302,145.855 -145.856,145.855 z"
           id="path5929"
           inkscape:connector-curvature="0" />
        <path
           d="m 306,231.67 c -6.136,0 -12.095,0.749 -17.798,2.15 5.841,6.76 9.383,15.563 9.383,25.198 0,21.3 -17.267,38.568 -38.568,38.568 -9.635,0 -18.438,-3.541 -25.198,-9.383 -1.401,5.703 -2.15,11.662 -2.15,17.798 0,41.052 33.279,74.33 74.33,74.33 41.051,0 74.33,-33.279 74.33,-74.33 0,-41.051 -33.277,-74.331 -74.329,-74.331 z"
           id="path5931"
           inkscape:connector-curvature="0" />
      </g>
    </g>
    <g
       transform="matrix(0.07441523,0,0,0.07441523,62.194872,124.21374)"
       id="g5937" />
    <g
       transform="matrix(0.07441523,0,0,0.07441523,62.194872,124.21374)"
       id="g5939" />
    <g
       transform="matrix(0.07441523,0,0,0.07441523,62.194872,124.21374)"
       id="g5941" />
    <g
       transform="matrix(0.07441523,0,0,0.07441523,62.194872,124.21374)"
       id="g5943" />
    <g
       transform="matrix(0.07441523,0,0,0.07441523,62.194872,124.21374)"
       id="g5945" />
    <g
       transform="matrix(0.07441523,0,0,0.07441523,62.194872,124.21374)"
       id="g5947" />
    <g
       transform="matrix(0.07441523,0,0,0.07441523,62.194872,124.21374)"
       id="g5949" />
    <g
       transform="matrix(0.07441523,0,0,0.07441523,62.194872,124.21374)"
       id="g5951" />
    <g
       transform="matrix(0.07441523,0,0,0.07441523,62.194872,124.21374)"
       id="g5953" />
    <g
       transform="matrix(0.07441523,0,0,0.07441523,62.194872,124.21374)"
       id="g5955" />
    <g
       transform="matrix(0.07441523,0,0,0.07441523,62.194872,124.21374)"
       id="g5957" />
    <g
       transform="matrix(0.07441523,0,0,0.07441523,62.194872,124.21374)"
       id="g5959" />
    <g
       transform="matrix(0.07441523,0,0,0.07441523,62.194872,124.21374)"
       id="g5961" />
    <g
       transform="matrix(0.07441523,0,0,0.07441523,62.194872,124.21374)"
       id="g5963" />
    <g
       transform="matrix(0.07441523,0,0,0.07441523,62.194872,124.21374)"
       id="g5965" />
  </g>
</svg>
