<?xml version="1.0" encoding="UTF-8" standalone="no"?>
<!-- Created with Inkscape (http://www.inkscape.org/) -->

<svg
   xmlns:dc="http://purl.org/dc/elements/1.1/"
   xmlns:cc="http://creativecommons.org/ns#"
   xmlns:rdf="http://www.w3.org/1999/02/22-rdf-syntax-ns#"
   xmlns:svg="http://www.w3.org/2000/svg"
   xmlns="http://www.w3.org/2000/svg"
   xmlns:sodipodi="http://sodipodi.sourceforge.net/DTD/sodipodi-0.dtd"
   xmlns:inkscape="http://www.inkscape.org/namespaces/inkscape"
   width="52.937668mm"
   height="52.937668mm"
   viewBox="0 0 52.937668 52.937668"
   version="1.1"
   id="svg8"
   inkscape:version="0.92.5 (2060ec1f9f, 2020-04-08)">
  <defs
     id="defs2" />
  <sodipodi:namedview
     id="base"
     pagecolor="#ffffff"
     bordercolor="#666666"
     borderopacity="1.0"
     inkscape:pageopacity="0.0"
     inkscape:pageshadow="2"
     inkscape:zoom="1.4142136"
     inkscape:cx="42.907992"
     inkscape:cy="140.93464"
     inkscape:document-units="mm"
     inkscape:current-layer="layer1"
     showgrid="false"
     fit-margin-top="0"
     fit-margin-left="0"
     fit-margin-right="0"
     fit-margin-bottom="0"
     inkscape:window-width="1366"
     inkscape:window-height="715"
     inkscape:window-x="-8"
     inkscape:window-y="-8"
     inkscape:window-maximized="1" />
  <metadata
     id="metadata5">
    <rdf:RDF>
      <cc:Work
         rdf:about="">
        <dc:format>image/svg+xml</dc:format>
        <dc:type
           rdf:resource="http://purl.org/dc/dcmitype/StillImage" />
        <dc:title></dc:title>
      </cc:Work>
    </rdf:RDF>
  </metadata>
  <g
     inkscape:label="Layer 1"
     inkscape:groupmode="layer"
     id="layer1"
     style="opacity:1"
     transform="translate(-58.953787,-120.85259)">
    <g
       transform="matrix(0.093207,0,0,0.093207,61.75298,124.01754)"
       id="g5221">
      <g
         id="g5219">
        <path
           d="M 463.702,162.655 442.491,14.164 C 440.747,1.99 425.784,-3.069 417.032,5.683 L 386.138,36.577 C 346.411,12.612 301.309,0 254.932,0 115.464,0 3.491,109.16 0.005,248.511 c -0.19,7.617 5.347,14.15 12.876,15.234 l 59.941,8.569 c 8.936,1.304 17.249,-5.712 17.125,-15.058 C 88.704,165.286 162.986,90 254.932,90 c 22.265,0 44.267,4.526 64.6,13.183 l -29.78,29.78 c -8.697,8.697 -3.761,23.706 8.481,25.459 l 148.491,21.211 c 9.784,1.475 18.381,-7.034 16.978,-16.978 z"
           id="path5217"
           inkscape:connector-curvature="0" />
      </g>
    </g>
    <g
       transform="matrix(0.093207,0,0,0.093207,61.75298,124.01754)"
       id="g5227">
      <g
         id="g5225">
        <path
           d="m 499.117,249.412 -59.897,-8.555 c -7.738,-0.98 -17.124,5.651 -17.124,16.143 0,90.981 -74.019,165 -165,165 -22.148,0 -44.048,-4.482 -64.306,-13.052 l 28.828,-28.828 c 8.697,-8.697 3.761,-23.706 -8.481,-25.459 L 64.646,333.435 c -9.753,-1.393 -18.39,6.971 -16.978,16.978 l 21.21,148.492 c 1.746,12.187 16.696,17.212 25.459,8.481 l 31.641,-31.626 c 39.536,23.745 84.609,36.24 131.118,36.24 138.794,0 250.752,-108.618 254.897,-247.28 0.22,-7.632 -5.317,-14.224 -12.876,-15.308 z"
           id="path5223"
           inkscape:connector-curvature="0" />
      </g>
    </g>
    <g
       transform="matrix(0.093207,0,0,0.093207,61.75298,124.01754)"
       id="g5229" />
    <g
       transform="matrix(0.093207,0,0,0.093207,61.75298,124.01754)"
       id="g5231" />
    <g
       transform="matrix(0.093207,0,0,0.093207,61.75298,124.01754)"
       id="g5233" />
    <g
       transform="matrix(0.093207,0,0,0.093207,61.75298,124.01754)"
       id="g5235" />
    <g
       transform="matrix(0.093207,0,0,0.093207,61.75298,124.01754)"
       id="g5237" />
    <g
       transform="matrix(0.093207,0,0,0.093207,61.75298,124.01754)"
       id="g5239" />
    <g
       transform="matrix(0.093207,0,0,0.093207,61.75298,124.01754)"
       id="g5241" />
    <g
       transform="matrix(0.093207,0,0,0.093207,61.75298,124.01754)"
       id="g5243" />
    <g
       transform="matrix(0.093207,0,0,0.093207,61.75298,124.01754)"
       id="g5245" />
    <g
       transform="matrix(0.093207,0,0,0.093207,61.75298,124.01754)"
       id="g5247" />
    <g
       transform="matrix(0.093207,0,0,0.093207,61.75298,124.01754)"
       id="g5249" />
    <g
       transform="matrix(0.093207,0,0,0.093207,61.75298,124.01754)"
       id="g5251" />
    <g
       transform="matrix(0.093207,0,0,0.093207,61.75298,124.01754)"
       id="g5253" />
    <g
       transform="matrix(0.093207,0,0,0.093207,61.75298,124.01754)"
       id="g5255" />
    <g
       transform="matrix(0.093207,0,0,0.093207,61.75298,124.01754)"
       id="g5257" />
  </g>
</svg>
